<?xml version="1.0" encoding="UTF-8"?>
<svg id="Layer_2" data-name="Layer 2" xmlns="http://www.w3.org/2000/svg" xmlns:xlink="http://www.w3.org/1999/xlink" viewBox="0 0 295.35 77.8">
  <defs>
    <style>
      .cls-1 {
        fill: url(#linear-gradient-2);
      }

      .cls-2 {
        fill: #00a042;
      }

      .cls-3 {
        fill: url(#linear-gradient-4);
      }

      .cls-4 {
        fill: url(#linear-gradient-3);
      }

      .cls-5 {
        fill: url(#linear-gradient-5);
      }

      .cls-6 {
        fill: url(#linear-gradient-8);
      }

      .cls-7 {
        fill: #21cc38;
      }

      .cls-8 {
        fill: url(#linear-gradient-7);
      }

      .cls-9 {
        fill: url(#linear-gradient-6);
      }

      .cls-10 {
        fill: #006c38;
      }

      .cls-11 {
        fill: url(#linear-gradient);
      }
    </style>
    <linearGradient id="linear-gradient" x1="8.31" y1="41.38" x2="37.92" y2="41.38" gradientUnits="userSpaceOnUse">
      <stop offset="0" stop-color="#e4fc07"/>
      <stop offset="1" stop-color="#2ecd33"/>
    </linearGradient>
    <linearGradient id="linear-gradient-2" x1="8.54" y1="46.93" x2="37.92" y2="46.93" gradientUnits="userSpaceOnUse">
      <stop offset="0" stop-color="#e9fd06"/>
      <stop offset="1" stop-color="#29cd36"/>
    </linearGradient>
    <linearGradient id="linear-gradient-3" x1="7.04" y1="61.33" x2="24.42" y2="61.33" gradientTransform="translate(18.61 -48.96) rotate(12.36)" xlink:href="#linear-gradient"/>
    <linearGradient id="linear-gradient-4" x1="7.17" y1="64.59" x2="24.42" y2="64.59" gradientTransform="translate(18.61 -48.96) rotate(12.36)" xlink:href="#linear-gradient-2"/>
    <linearGradient id="linear-gradient-5" x1="478" y1="91.26" x2="488.72" y2="91.26" gradientTransform="translate(524.11 106.83) rotate(-158.26) scale(1 -1)" xlink:href="#linear-gradient"/>
    <linearGradient id="linear-gradient-6" x1="478.08" y1="93.27" x2="488.72" y2="93.27" gradientTransform="translate(524.11 106.83) rotate(-158.26) scale(1 -1)" xlink:href="#linear-gradient-2"/>
    <linearGradient id="linear-gradient-7" x1="380.33" y1="-105.93" x2="401.48" y2="-105.93" gradientTransform="translate(418.17 -136.19) rotate(141.15) scale(1 -1)" xlink:href="#linear-gradient"/>
    <linearGradient id="linear-gradient-8" x1="380.5" y1="-101.96" x2="401.48" y2="-101.96" gradientTransform="translate(418.17 -136.19) rotate(141.15) scale(1 -1)" xlink:href="#linear-gradient-2"/>
  </defs>
  <g id="Layer_1-2" data-name="Layer 1">
    <g>
      <path class="cls-7" d="M.36,59.95c3.05,2.2,21.01,14.69,42.94,10.26,3.51-.71,17.02-3.44,27.19-14.78,1.68-1.87,2.91-3.58,3.74-4.82.59-1.27.77-2,.52-2.19-.3-.23-1.23.37-2.8,1.79-1.23,1.85-3.18,4.32-6.09,6.65-3.71,2.97-7.38,4.42-9.76,5.15,2.58-1.46,5.43-3.32,8.35-5.69,6.05-4.93,10.12-10.22,12.77-14.39.18-.77.52-2.41.03-2.66-.67-.34-2.5,2.06-2.79,2.45-1.85,2.44-4.29,5.22-7.45,7.98-5.03,4.38-10.04,7.06-13.82,8.7,5.05-3.36,10.91-7.95,16.68-14.15,2.95-3.16,5.44-6.28,7.54-9.21.14-.62.52-2.4,0-2.65-.68-.33-2.48,2.14-2.69,2.44-2.01,2.9-4.82,6.38-8.66,9.84-5.02,4.51-9.99,7.36-13.75,9.13,3.77-2.3,8.46-5.77,12.91-10.87,2.05-2.35,3.72-4.67,5.07-6.81.73-1.59.95-2.49.66-2.71-.35-.27-1.45.45-3.29,2.15-4.69,5.97-9.45,9.73-12.73,11.95-5.25,3.55-9.07,4.78-10.1,5.1-3.14.96-5.88,1.29-7.84,1.41,2.11-.53,6.07-1.85,9.74-5.26,2.24-2.08,3.63-4.25,4.48-5.85.55-.88.41-1.74.05-1.93-.31-.17-.92.08-1.39.64-1.75,1.61-4.58,4-8.41,6.33-2.79,1.7-8,4.52-24.09,8.45-4.2,1.03-9.99,2.33-16.99,3.58Z"/>
      <path class="cls-2" d="M43.86,63.98c.45-2.47.88-6.45,0-11.13-1.14-6.05-4.04-11.01-6.55-15.27-1.83-3.13-3.84-6.03-5.75-10.91-.83-2.13-1.45-4.14-1.24-6.62.21-2.41,1.12-4.27,1.89-5.82,1.35-2.73,2.24-3.22,3.71-5.89,1.18-2.15,1.86-4.11,2.25-5.53.72-1.96,1.36-2.53,1.8-2.69,0,0,.02,0,.02,0,.63-.22,1.48-.16,1.75.22.4.57-.49,1.86-.58,1.82,0,0,.87-1.12.51-1.69-.26-.4-1.07-.43-1.62-.18-.46.21-.69.58-.95,1.01-.46.76-.61,1.45-.64,1.57-.27,1.25-.69,2.46-1,3.7-.14.55-.23.77-2.62,5.33-1.41,2.69-1.6,3.04-1.93,3.86-.64,1.57-1.15,2.84-1.2,4.51-.04,1.49.31,2.64.58,3.45,1.58,4.68,4.52,9.22,4.8,9.64,5.46,8.34,5.51,8.13,6.51,10.04,1.21,2.33,2.62,5.03,3.45,8.73.59,2.6,1.18,6.99,0,12.58-1.07-.24-2.13-.48-3.2-.73Z"/>
      <g>
        <path class="cls-11" d="M18.12,42.71c-2.32.48-5.83,1.47-9.81,3.69,2.62-2.92,5.23-4.79,7.12-5.94,2.64-1.61,7.06-4.24,12.87-4.08,2.38.07,5.53.16,7.71,2.55.22.24,1.67,1.88,1.91,4.28-2.87-.63-6.79-1.24-11.44-1.23-2.2.01-4.97.03-8.36.73Z"/>
        <path class="cls-1" d="M31.79,43.44c2.44.31,4.52.74,6.13,1.13-.01.15-.03.31-.06.47-.48,2.71-2.47,4.25-3.3,4.8-2.07,1.35-4.17,1.24-7.06,1.09-.89-.05-4.62-.29-9.16-2.04-2.24-.86-3.3-1.55-5.75-2.03-1.62-.33-3.03-.39-4.05-.38,3.15-1.54,5.91-2.34,7.91-2.78,6.32-1.41,11.6-.74,15.34-.26Z"/>
      </g>
      <g>
        <path class="cls-4" d="M17.81,14.45c-1.39-.02-3.53.11-6.09.88,1.87-1.34,3.6-2.09,4.83-2.51,1.72-.59,4.58-1.54,7.89-.72,1.36.34,3.15.79,4.1,2.43.1.17.72,1.29.56,2.69-1.57-.72-3.74-1.56-6.4-2.14-1.26-.27-2.85-.61-4.88-.63Z"/>
        <path class="cls-3" d="M25.56,16.58c1.36.48,2.5.99,3.37,1.42-.02.08-.06.17-.09.26-.62,1.49-1.95,2.13-2.5,2.34-1.36.51-2.55.19-4.18-.26-.5-.14-2.61-.75-5-2.32-1.18-.77-1.7-1.3-3.04-1.89-.89-.39-1.69-.6-2.27-.73,2-.49,3.68-.6,4.88-.6,3.8-.01,6.74,1.03,8.83,1.78Z"/>
      </g>
      <g>
        <path class="cls-5" d="M42.83,13.66c.72.47,1.76,1.28,2.8,2.56-.49-1.33-1.12-2.31-1.6-2.95-.67-.9-1.81-2.37-3.78-3.1-.81-.3-1.88-.69-2.94-.18-.11.05-.81.41-1.22,1.18,1.05.17,2.45.49,4.01,1.12.74.3,1.67.68,2.71,1.37Z"/>
        <path class="cls-9" d="M38.14,12.07c-.86-.22-1.62-.36-2.21-.44-.02.05-.03.11-.04.17-.2.98.26,1.76.47,2.06.52.73,1.24.98,2.23,1.31.31.1,1.59.52,3.35.54.87.01,1.32-.08,2.21.09.59.11,1.07.28,1.41.42-.85-.94-1.67-1.58-2.29-2-1.94-1.32-3.8-1.81-5.13-2.15Z"/>
      </g>
      <g>
        <path class="cls-8" d="M50.66,25.03c1.51-.77,3.9-1.79,7.11-2.34-2.77-.45-5.06-.32-6.62-.11-2.19.29-5.83.8-8.99,3.5-1.29,1.11-3,2.57-3.15,4.87-.01.23-.09,1.79.86,3.24,1.31-1.64,3.22-3.73,5.81-5.81,1.23-.98,2.78-2.21,4.98-3.34Z"/>
        <path class="cls-6" d="M43.39,31.57c-1.22,1.27-2.18,2.44-2.9,3.38.07.08.16.16.24.23,1.48,1.29,3.28,1.26,3.99,1.19,1.76-.18,2.88-1.18,4.42-2.56.47-.43,2.44-2.23,4.18-5.24.86-1.48,1.14-2.34,2.29-3.71.75-.91,1.51-1.57,2.08-2.03-2.44.55-4.34,1.35-5.65,2-4.15,2.05-6.78,4.79-8.65,6.73Z"/>
      </g>
      <path class="cls-10" d="M0,60.26c2.63,2.69,18.15,18.1,40.52,17.52,3.58-.09,17.36-.45,29.33-9.86,1.98-1.55,3.49-3.03,4.51-4.1.8-1.15,1.1-1.84.89-2.06-.25-.28-1.28.15-3.07,1.28-1.53,1.61-3.88,3.71-7.14,5.5-4.17,2.28-8.03,3.08-10.51,3.39,2.8-.99,5.92-2.33,9.2-4.17,6.81-3.81,11.73-8.32,15.06-11.96.31-.72.93-2.28.49-2.61-.6-.45-2.81,1.6-3.17,1.93-2.24,2.08-5.13,4.4-8.72,6.57-5.71,3.44-11.1,5.22-15.11,6.18,5.55-2.44,12.12-5.95,18.87-11.06,3.45-2.61,6.44-5.25,9.02-7.77.25-.59.93-2.27.46-2.61-.61-.45-2.82,1.68-3.07,1.93-2.48,2.51-5.85,5.46-10.22,8.19-5.72,3.58-11.11,5.52-15.12,6.62,4.11-1.62,9.33-4.22,14.59-8.48,2.43-1.96,4.47-3.96,6.17-5.83,1-1.43,1.37-2.29,1.12-2.56-.3-.32-1.51.19-3.62,1.55-5.65,5.07-10.99,7.95-14.6,9.57-5.78,2.59-9.76,3.14-10.83,3.28-3.26.41-6.02.26-7.96.03,2.17-.16,6.3-.77,10.51-3.5,2.56-1.66,4.31-3.56,5.42-4.99.69-.77.7-1.64.38-1.9-.28-.22-.92-.08-1.48.39-2,1.28-5.2,3.15-9.38,4.78-3.04,1.19-8.66,3.07-25.19,4.16-4.31.28-10.24.57-17.35.6Z"/>
    </g>
    <g>
      <path d="M113.85,47.67c-1.07.38-3.19,1.02-5.69,1.02-2.8,0-5.11-.71-6.92-2.44-1.59-1.54-2.58-4.01-2.58-6.89.03-5.52,3.82-9.56,10.02-9.56,2.14,0,3.82.47,4.61.85l-.58,1.95c-.99-.44-2.23-.8-4.09-.8-4.5,0-7.44,2.8-7.44,7.44s2.83,7.47,7.14,7.47c1.57,0,2.64-.22,3.19-.49v-5.52h-3.76v-1.92h6.1v8.9Z"/>
      <path d="M117.41,39.35c0-1.57-.03-2.91-.11-4.15h2.11l.08,2.61h.11c.6-1.79,2.06-2.91,3.68-2.91.27,0,.47.03.69.08v2.28c-.25-.06-.49-.08-.82-.08-1.7,0-2.91,1.29-3.24,3.1-.06.33-.11.71-.11,1.13v7.09h-2.39v-9.15Z"/>
      <path d="M138.15,41.74c0,4.92-3.41,7.06-6.62,7.06-3.6,0-6.37-2.64-6.37-6.84,0-4.45,2.91-7.06,6.59-7.06s6.4,2.77,6.4,6.84ZM127.6,41.88c0,2.91,1.67,5.11,4.04,5.11s4.04-2.17,4.04-5.16c0-2.25-1.13-5.11-3.98-5.11s-4.09,2.64-4.09,5.16Z"/>
      <path d="M141.96,35.2l1.76,6.76c.38,1.48.74,2.86.99,4.23h.08c.3-1.35.74-2.77,1.18-4.2l2.17-6.78h2.03l2.06,6.65c.5,1.59.88,2.99,1.18,4.34h.08c.22-1.35.58-2.75,1.02-4.31l1.89-6.67h2.39l-4.28,13.29h-2.2l-2.03-6.34c-.47-1.48-.85-2.8-1.18-4.37h-.05c-.33,1.59-.74,2.97-1.21,4.39l-2.14,6.32h-2.2l-4.01-13.29h2.47Z"/>
      <path d="M164.12,31.39v3.82h3.46v1.84h-3.46v7.17c0,1.65.47,2.58,1.81,2.58.63,0,1.1-.08,1.4-.17l.11,1.81c-.47.19-1.21.33-2.14.33-1.13,0-2.03-.36-2.61-1.02-.69-.71-.93-1.9-.93-3.46v-7.25h-2.06v-1.84h2.06v-3.19l2.36-.63Z"/>
      <path d="M170.3,29h2.42v8.29h.05c.38-.69.99-1.29,1.73-1.7.71-.41,1.57-.69,2.47-.69,1.79,0,4.64,1.1,4.64,5.69v7.91h-2.42v-7.64c0-2.14-.8-3.96-3.08-3.96-1.57,0-2.8,1.1-3.24,2.42-.14.33-.17.69-.17,1.15v8.02h-2.42v-19.5Z"/>
      <path d="M191.11,45.59c1.07.66,2.64,1.21,4.28,1.21,2.45,0,3.87-1.29,3.87-3.16,0-1.73-.99-2.72-3.49-3.68-3.02-1.07-4.89-2.64-4.89-5.25,0-2.88,2.39-5.03,5.99-5.03,1.9,0,3.27.44,4.09.91l-.66,1.95c-.6-.33-1.84-.88-3.52-.88-2.53,0-3.49,1.51-3.49,2.77,0,1.73,1.13,2.58,3.68,3.57,3.13,1.21,4.72,2.72,4.72,5.44,0,2.86-2.11,5.33-6.48,5.33-1.79,0-3.74-.52-4.72-1.18l.6-2Z"/>
      <path d="M217.09,41.74c0,4.92-3.41,7.06-6.62,7.06-3.6,0-6.37-2.64-6.37-6.84,0-4.45,2.91-7.06,6.59-7.06s6.4,2.77,6.4,6.84ZM206.54,41.88c0,2.91,1.68,5.11,4.04,5.11s4.04-2.17,4.04-5.16c0-2.25-1.13-5.11-3.98-5.11s-4.09,2.64-4.09,5.16Z"/>
      <path d="M220.14,29h2.42v19.5h-2.42v-19.5Z"/>
      <path d="M237.74,44.87c0,1.37.03,2.58.11,3.63h-2.14l-.14-2.17h-.05c-.63,1.07-2.03,2.47-4.39,2.47-2.09,0-4.59-1.15-4.59-5.82v-7.77h2.42v7.36c0,2.53.77,4.23,2.97,4.23,1.62,0,2.75-1.13,3.19-2.2.14-.36.22-.8.22-1.24v-8.16h2.42v9.67Z"/>
      <path d="M244.66,31.39v3.82h3.46v1.84h-3.46v7.17c0,1.65.47,2.58,1.81,2.58.63,0,1.1-.08,1.4-.17l.11,1.81c-.47.19-1.21.33-2.14.33-1.13,0-2.03-.36-2.61-1.02-.69-.71-.93-1.9-.93-3.46v-7.25h-2.06v-1.84h2.06v-3.19l2.36-.63Z"/>
      <path d="M253.53,31.47c.03.82-.58,1.48-1.54,1.48-.85,0-1.46-.66-1.46-1.48s.63-1.51,1.51-1.51,1.48.66,1.48,1.51ZM250.83,48.5v-13.29h2.42v13.29h-2.42Z"/>
      <path d="M269.29,41.74c0,4.92-3.41,7.06-6.62,7.06-3.6,0-6.37-2.64-6.37-6.84,0-4.45,2.91-7.06,6.59-7.06s6.4,2.77,6.4,6.84ZM258.74,41.88c0,2.91,1.68,5.11,4.04,5.11s4.04-2.17,4.04-5.16c0-2.25-1.13-5.11-3.98-5.11s-4.09,2.64-4.09,5.16Z"/>
      <path d="M272.33,38.8c0-1.37-.03-2.5-.11-3.6h2.14l.14,2.2h.05c.66-1.26,2.2-2.5,4.39-2.5,1.84,0,4.7,1.1,4.7,5.66v7.94h-2.42v-7.66c0-2.14-.8-3.93-3.08-3.93-1.59,0-2.83,1.13-3.24,2.47-.11.3-.17.71-.17,1.13v7.99h-2.42v-9.7Z"/>
      <path d="M287.25,46.03c.71.47,1.98.96,3.19.96,1.76,0,2.58-.88,2.58-1.98,0-1.15-.69-1.79-2.47-2.44-2.39-.85-3.52-2.17-3.52-3.76,0-2.14,1.73-3.9,4.59-3.9,1.35,0,2.53.38,3.27.82l-.6,1.76c-.52-.33-1.48-.77-2.72-.77-1.43,0-2.22.82-2.22,1.81,0,1.1.8,1.59,2.53,2.25,2.31.88,3.49,2.03,3.49,4.01,0,2.33-1.81,3.98-4.97,3.98-1.46,0-2.8-.36-3.74-.91l.6-1.84Z"/>
    </g>
  </g>
</svg>