<?xml version="1.0" encoding="UTF-8"?>
<svg id="Layer_2" data-name="Layer 2" xmlns="http://www.w3.org/2000/svg" xmlns:xlink="http://www.w3.org/1999/xlink" viewBox="0 0 80.81 77.8">
  <defs>
    <style>
      .cls-1 {
        fill: url(#linear-gradient-2);
      }

      .cls-2 {
        fill: #00a042;
      }

      .cls-3 {
        fill: url(#linear-gradient-4);
      }

      .cls-4 {
        fill: url(#linear-gradient-3);
      }

      .cls-5 {
        fill: url(#linear-gradient-5);
      }

      .cls-6 {
        fill: url(#linear-gradient-8);
      }

      .cls-7 {
        fill: #21cc38;
      }

      .cls-8 {
        fill: url(#linear-gradient-7);
      }

      .cls-9 {
        fill: url(#linear-gradient-6);
      }

      .cls-10 {
        fill: #006c38;
      }

      .cls-11 {
        fill: url(#linear-gradient);
      }
    </style>
    <linearGradient id="linear-gradient" x1="8.31" y1="41.38" x2="37.92" y2="41.38" gradientUnits="userSpaceOnUse">
      <stop offset="0" stop-color="#e4fc07"/>
      <stop offset="1" stop-color="#2ecd33"/>
    </linearGradient>
    <linearGradient id="linear-gradient-2" x1="8.54" y1="46.93" x2="37.92" y2="46.93" gradientUnits="userSpaceOnUse">
      <stop offset="0" stop-color="#e9fd06"/>
      <stop offset="1" stop-color="#29cd36"/>
    </linearGradient>
    <linearGradient id="linear-gradient-3" x1="12.76" y1="34.33" x2="30.14" y2="34.33" gradientTransform="translate(7.25 -23.82) rotate(12.36)" xlink:href="#linear-gradient"/>
    <linearGradient id="linear-gradient-4" x1="12.89" y1="37.59" x2="30.14" y2="37.59" gradientTransform="translate(7.25 -23.82) rotate(12.36)" xlink:href="#linear-gradient-2"/>
    <linearGradient id="linear-gradient-5" x1="228.36" y1="43.31" x2="239.09" y2="43.31" gradientTransform="translate(274.47 58.89) rotate(-158.26) scale(1 -1)" xlink:href="#linear-gradient"/>
    <linearGradient id="linear-gradient-6" x1="228.45" y1="45.32" x2="239.09" y2="45.32" gradientTransform="translate(274.47 58.89) rotate(-158.26) scale(1 -1)" xlink:href="#linear-gradient-2"/>
    <linearGradient id="linear-gradient-7" x1="188.77" y1="-38.37" x2="209.92" y2="-38.37" gradientTransform="translate(226.6 -68.63) rotate(141.15) scale(1 -1)" xlink:href="#linear-gradient"/>
    <linearGradient id="linear-gradient-8" x1="188.93" y1="-34.41" x2="209.92" y2="-34.41" gradientTransform="translate(226.6 -68.63) rotate(141.15) scale(1 -1)" xlink:href="#linear-gradient-2"/>
  </defs>
  <g id="Layer_1-2" data-name="Layer 1">
    <g>
      <path class="cls-7" d="M.36,59.95c3.05,2.2,21.01,14.69,42.94,10.26,3.51-.71,17.02-3.44,27.19-14.78,1.68-1.87,2.91-3.58,3.74-4.82.59-1.27.77-2,.52-2.19-.3-.23-1.23.37-2.8,1.79-1.23,1.85-3.18,4.32-6.09,6.65-3.71,2.97-7.38,4.42-9.76,5.15,2.58-1.46,5.43-3.32,8.35-5.69,6.05-4.93,10.12-10.22,12.77-14.39.18-.77.52-2.41.03-2.66-.67-.34-2.5,2.06-2.79,2.45-1.85,2.44-4.29,5.22-7.45,7.98-5.03,4.38-10.04,7.06-13.82,8.7,5.05-3.36,10.91-7.95,16.68-14.15,2.95-3.16,5.44-6.28,7.54-9.21.14-.62.52-2.4,0-2.65-.68-.33-2.48,2.14-2.69,2.44-2.01,2.9-4.82,6.38-8.66,9.84-5.02,4.51-9.99,7.36-13.75,9.13,3.77-2.3,8.46-5.77,12.91-10.87,2.05-2.35,3.72-4.67,5.07-6.81.73-1.59.95-2.49.66-2.71-.35-.27-1.45.45-3.29,2.15-4.69,5.97-9.45,9.73-12.73,11.95-5.25,3.55-9.07,4.78-10.1,5.1-3.14.96-5.88,1.29-7.84,1.41,2.11-.53,6.07-1.85,9.74-5.26,2.24-2.08,3.63-4.25,4.48-5.85.55-.88.41-1.74.05-1.93-.31-.17-.92.08-1.39.64-1.75,1.61-4.58,4-8.41,6.33-2.79,1.7-8,4.52-24.09,8.45-4.2,1.03-9.99,2.33-16.99,3.58Z"/>
      <path class="cls-2" d="M43.86,63.98c.45-2.47.88-6.45,0-11.13-1.14-6.05-4.04-11.01-6.55-15.27-1.83-3.13-3.84-6.03-5.75-10.91-.83-2.13-1.45-4.14-1.24-6.62.21-2.41,1.12-4.27,1.89-5.82,1.35-2.73,2.24-3.22,3.71-5.89,1.18-2.15,1.86-4.11,2.25-5.53.72-1.96,1.36-2.53,1.8-2.69,0,0,.02,0,.02,0,.63-.22,1.48-.16,1.75.22.4.57-.49,1.86-.58,1.82,0,0,.87-1.12.51-1.69-.26-.4-1.07-.43-1.62-.18-.46.21-.69.58-.95,1.01-.46.76-.61,1.45-.64,1.57-.27,1.25-.69,2.46-1,3.7-.14.55-.23.77-2.62,5.33-1.41,2.69-1.6,3.04-1.93,3.86-.64,1.57-1.15,2.84-1.2,4.51-.04,1.49.31,2.64.58,3.45,1.58,4.68,4.52,9.22,4.8,9.64,5.46,8.34,5.51,8.13,6.51,10.04,1.21,2.33,2.62,5.03,3.45,8.73.59,2.6,1.18,6.99,0,12.58-1.07-.24-2.13-.48-3.2-.73Z"/>
      <g>
        <path class="cls-11" d="M18.12,42.71c-2.32.48-5.83,1.47-9.81,3.69,2.62-2.92,5.23-4.79,7.12-5.94,2.64-1.61,7.06-4.24,12.87-4.08,2.38.07,5.53.16,7.71,2.55.22.24,1.67,1.88,1.91,4.28-2.87-.63-6.79-1.24-11.44-1.23-2.2.01-4.97.03-8.36.73Z"/>
        <path class="cls-1" d="M31.79,43.44c2.44.31,4.52.74,6.13,1.13-.01.15-.03.31-.06.47-.48,2.71-2.47,4.25-3.3,4.8-2.07,1.35-4.17,1.24-7.06,1.09-.89-.05-4.62-.29-9.16-2.04-2.24-.86-3.3-1.55-5.75-2.03-1.62-.33-3.03-.39-4.05-.38,3.15-1.54,5.91-2.34,7.91-2.78,6.32-1.41,11.6-.74,15.34-.26Z"/>
      </g>
      <g>
        <path class="cls-4" d="M17.81,14.45c-1.39-.02-3.53.11-6.09.88,1.87-1.34,3.6-2.09,4.83-2.51,1.72-.59,4.58-1.54,7.89-.72,1.36.34,3.15.79,4.1,2.43.1.17.72,1.29.56,2.69-1.57-.72-3.74-1.56-6.4-2.14-1.26-.27-2.85-.61-4.88-.63Z"/>
        <path class="cls-3" d="M25.56,16.58c1.36.48,2.5.99,3.37,1.42-.02.08-.06.17-.09.26-.62,1.49-1.95,2.13-2.5,2.34-1.36.51-2.55.19-4.18-.26-.5-.14-2.61-.75-5-2.32-1.18-.77-1.7-1.3-3.04-1.89-.89-.39-1.69-.6-2.27-.73,2-.49,3.68-.6,4.88-.6,3.8-.01,6.74,1.03,8.83,1.78Z"/>
      </g>
      <g>
        <path class="cls-5" d="M42.83,13.66c.72.47,1.76,1.28,2.8,2.56-.49-1.33-1.12-2.31-1.6-2.95-.67-.9-1.81-2.37-3.78-3.1-.81-.3-1.88-.69-2.94-.18-.11.05-.81.41-1.22,1.18,1.05.17,2.45.49,4.01,1.12.74.3,1.67.68,2.71,1.37Z"/>
        <path class="cls-9" d="M38.14,12.07c-.86-.22-1.62-.36-2.21-.44-.02.05-.03.11-.04.17-.2.98.26,1.76.47,2.06.52.73,1.24.98,2.23,1.31.31.1,1.59.52,3.35.54.87.01,1.32-.08,2.21.09.59.11,1.07.28,1.41.42-.85-.94-1.67-1.58-2.29-2-1.94-1.32-3.8-1.81-5.13-2.15Z"/>
      </g>
      <g>
        <path class="cls-8" d="M50.66,25.03c1.51-.77,3.9-1.79,7.11-2.34-2.77-.45-5.06-.32-6.62-.11-2.19.29-5.83.8-8.99,3.5-1.29,1.11-3,2.57-3.15,4.87-.01.23-.09,1.79.86,3.24,1.31-1.64,3.22-3.73,5.81-5.81,1.23-.98,2.78-2.21,4.98-3.34Z"/>
        <path class="cls-6" d="M43.39,31.57c-1.22,1.27-2.18,2.44-2.9,3.38.07.08.16.16.24.23,1.48,1.29,3.28,1.26,3.99,1.19,1.76-.18,2.88-1.18,4.42-2.56.47-.43,2.44-2.23,4.18-5.24.86-1.48,1.14-2.34,2.29-3.71.75-.91,1.51-1.57,2.08-2.03-2.44.55-4.34,1.35-5.65,2-4.15,2.05-6.78,4.79-8.65,6.73Z"/>
      </g>
      <path class="cls-10" d="M0,60.26c2.63,2.69,18.15,18.1,40.52,17.52,3.58-.09,17.36-.45,29.33-9.86,1.98-1.55,3.49-3.03,4.51-4.1.8-1.15,1.1-1.84.89-2.06-.25-.28-1.28.15-3.07,1.28-1.53,1.61-3.88,3.71-7.14,5.5-4.17,2.28-8.03,3.08-10.51,3.39,2.8-.99,5.92-2.33,9.2-4.17,6.81-3.81,11.73-8.32,15.06-11.96.31-.72.93-2.28.49-2.61-.6-.45-2.81,1.6-3.17,1.93-2.24,2.08-5.13,4.4-8.72,6.57-5.71,3.44-11.1,5.22-15.11,6.18,5.55-2.44,12.12-5.95,18.87-11.06,3.45-2.61,6.44-5.25,9.02-7.77.25-.59.93-2.27.46-2.61-.61-.45-2.82,1.68-3.07,1.93-2.48,2.51-5.85,5.46-10.22,8.19-5.72,3.58-11.11,5.52-15.12,6.62,4.11-1.62,9.33-4.22,14.59-8.48,2.43-1.96,4.47-3.96,6.17-5.83,1-1.43,1.37-2.29,1.12-2.56-.3-.32-1.51.19-3.62,1.55-5.65,5.07-10.99,7.95-14.6,9.57-5.78,2.59-9.76,3.14-10.83,3.28-3.26.41-6.02.26-7.96.03,2.17-.16,6.3-.77,10.51-3.5,2.56-1.66,4.31-3.56,5.42-4.99.69-.77.7-1.64.38-1.9-.28-.22-.92-.08-1.48.39-2,1.28-5.2,3.15-9.38,4.78-3.04,1.19-8.66,3.07-25.19,4.16-4.31.28-10.24.57-17.35.6Z"/>
    </g>
  </g>
</svg>