<?xml version="1.0" encoding="UTF-8"?>
<svg id="Layer_2" data-name="Layer 2" xmlns="http://www.w3.org/2000/svg" xmlns:xlink="http://www.w3.org/1999/xlink" viewBox="0 0 189.45 49.24">
  <defs>
    <style>
      .cls-1 {
        fill: url(#linear-gradient-2);
      }

      .cls-2 {
        fill: #00a042;
      }

      .cls-3 {
        fill: url(#linear-gradient-4);
      }

      .cls-4 {
        fill: url(#linear-gradient-3);
      }

      .cls-5 {
        fill: url(#linear-gradient-5);
      }

      .cls-6 {
        fill: url(#linear-gradient-8);
      }

      .cls-7 {
        fill: #21cc38;
      }

      .cls-8 {
        fill: url(#linear-gradient-7);
      }

      .cls-9 {
        fill: url(#linear-gradient-6);
      }

      .cls-10 {
        fill: #006c38;
      }

      .cls-11 {
        fill: url(#linear-gradient);
      }
    </style>
    <linearGradient id="linear-gradient" x1="5.26" y1="26.19" x2="24" y2="26.19" gradientUnits="userSpaceOnUse">
      <stop offset="0" stop-color="#e4fc07"/>
      <stop offset="1" stop-color="#2ecd33"/>
    </linearGradient>
    <linearGradient id="linear-gradient-2" x1="5.41" y1="29.7" x2="24" y2="29.7" gradientUnits="userSpaceOnUse">
      <stop offset="0" stop-color="#e9fd06"/>
      <stop offset="1" stop-color="#29cd36"/>
    </linearGradient>
    <linearGradient id="linear-gradient-3" x1="4.54" y1="57.52" x2="15.54" y2="57.52" gradientTransform="translate(15.71 -49.28) rotate(12.36)" xlink:href="#linear-gradient"/>
    <linearGradient id="linear-gradient-4" x1="4.62" y1="59.58" x2="15.54" y2="59.58" gradientTransform="translate(15.71 -49.28) rotate(12.36)" xlink:href="#linear-gradient-2"/>
    <linearGradient id="linear-gradient-5" x1="490.74" y1="91.64" x2="497.53" y2="91.64" gradientTransform="translate(519.08 105.87) rotate(-158.26) scale(1 -1)" xlink:href="#linear-gradient"/>
    <linearGradient id="linear-gradient-6" x1="490.79" y1="92.91" x2="497.53" y2="92.91" gradientTransform="translate(519.08 105.87) rotate(-158.26) scale(1 -1)" xlink:href="#linear-gradient-2"/>
    <linearGradient id="linear-gradient-7" x1="400.13" y1="-127.4" x2="413.52" y2="-127.4" gradientTransform="translate(426.68 -139.19) rotate(141.15) scale(1 -1)" xlink:href="#linear-gradient"/>
    <linearGradient id="linear-gradient-8" x1="400.24" y1="-124.89" x2="413.52" y2="-124.89" gradientTransform="translate(426.68 -139.19) rotate(141.15) scale(1 -1)" xlink:href="#linear-gradient-2"/>
  </defs>
  <g id="Layer_1-2" data-name="Layer 1">
    <g>
      <path class="cls-7" d="M.23,37.94c1.93,1.39,13.3,9.3,27.18,6.49,2.22-.45,10.77-2.18,17.21-9.36,1.06-1.19,1.84-2.27,2.36-3.05.37-.81.48-1.27.33-1.38-.19-.15-.78.23-1.77,1.13-.78,1.17-2.01,2.73-3.85,4.21-2.35,1.88-4.67,2.8-6.18,3.26,1.64-.92,3.44-2.1,5.28-3.6,3.83-3.12,6.4-6.47,8.08-9.11.12-.48.33-1.52.02-1.68-.43-.22-1.58,1.3-1.77,1.55-1.17,1.54-2.71,3.31-4.72,5.05-3.19,2.77-6.35,4.47-8.75,5.51,3.19-2.13,6.9-5.03,10.56-8.96,1.87-2,3.44-3.97,4.77-5.83.09-.39.33-1.52,0-1.68-.43-.21-1.57,1.36-1.7,1.54-1.27,1.84-3.05,4.04-5.48,6.23-3.18,2.86-6.32,4.66-8.7,5.78,2.39-1.46,5.35-3.65,8.17-6.88,1.3-1.49,2.35-2.96,3.21-4.31.46-1,.6-1.58.42-1.72-.22-.17-.92.28-2.08,1.36-2.97,3.78-5.98,6.16-8.06,7.56-3.32,2.25-5.74,3.03-6.39,3.23-1.99.61-3.72.82-4.96.89,1.34-.34,3.84-1.17,6.17-3.33,1.42-1.32,2.3-2.69,2.83-3.71.35-.56.26-1.1.03-1.22-.2-.11-.58.05-.88.4-1.11,1.02-2.9,2.53-5.32,4.01-1.77,1.07-5.06,2.86-15.25,5.35-2.66.65-6.32,1.48-10.75,2.27Z"/>
      <path class="cls-2" d="M27.76,40.5c.28-1.57.56-4.08,0-7.04-.72-3.83-2.56-6.97-4.14-9.67-1.16-1.98-2.43-3.82-3.64-6.9-.53-1.35-.92-2.62-.78-4.19.13-1.53.71-2.7,1.2-3.68.85-1.73,1.42-2.04,2.35-3.73.75-1.36,1.18-2.6,1.43-3.5.46-1.24.86-1.6,1.14-1.7,0,0,0,0,.01,0,.4-.14.93-.1,1.1.14.25.36-.31,1.17-.37,1.15,0,0,.55-.71.32-1.07-.16-.25-.68-.27-1.03-.11-.29.13-.44.37-.6.64-.29.48-.39.92-.41.99-.17.79-.43,1.56-.63,2.34-.09.35-.15.49-1.66,3.37-.89,1.7-1.01,1.92-1.22,2.44-.41.99-.73,1.8-.76,2.85-.03.94.19,1.67.37,2.19,1,2.96,2.86,5.83,3.04,6.1,3.46,5.28,3.49,5.14,4.12,6.35.77,1.47,1.66,3.19,2.19,5.52.37,1.64.75,4.42,0,7.96-.68-.15-1.35-.31-2.03-.46Z"/>
      <g>
        <path class="cls-11" d="M11.47,27.03c-1.47.3-3.69.93-6.21,2.34,1.66-1.85,3.31-3.03,4.51-3.76,1.67-1.02,4.47-2.68,8.15-2.58,1.51.04,3.5.1,4.88,1.61.14.15,1.06,1.19,1.21,2.71-1.82-.4-4.3-.78-7.24-.78-1.39,0-3.15.02-5.29.46Z"/>
        <path class="cls-1" d="M20.12,27.49c1.54.2,2.86.47,3.88.72,0,.09-.02.2-.04.3-.3,1.72-1.56,2.69-2.09,3.04-1.31.85-2.64.78-4.47.69-.56-.03-2.92-.18-5.8-1.29-1.42-.54-2.09-.98-3.64-1.28-1.03-.21-1.92-.25-2.56-.24,1.99-.97,3.74-1.48,5.01-1.76,4-.89,7.34-.47,9.71-.16Z"/>
      </g>
      <g>
        <path class="cls-4" d="M11.27,9.14c-.88-.01-2.23.07-3.85.56,1.18-.85,2.28-1.32,3.06-1.59,1.09-.37,2.9-.98,5-.46.86.21,1.99.5,2.6,1.54.06.1.46.82.35,1.71-.99-.46-2.37-.99-4.05-1.36-.8-.17-1.81-.38-3.09-.4Z"/>
        <path class="cls-3" d="M16.18,10.5c.86.31,1.58.63,2.13.9-.02.05-.04.11-.06.17-.39.95-1.23,1.35-1.58,1.48-.86.33-1.61.12-2.65-.17-.32-.09-1.65-.47-3.16-1.47-.74-.49-1.07-.83-1.93-1.19-.56-.25-1.07-.38-1.44-.46,1.27-.31,2.33-.38,3.09-.38,2.41,0,4.27.65,5.59,1.13Z"/>
      </g>
      <g>
        <path class="cls-5" d="M27.11,8.64c.45.3,1.12.81,1.78,1.62-.31-.84-.71-1.46-1.01-1.87-.43-.57-1.14-1.5-2.39-1.96-.51-.19-1.19-.44-1.86-.11-.07.03-.52.26-.77.75.66.11,1.55.31,2.54.71.47.19,1.06.43,1.72.87Z"/>
        <path class="cls-9" d="M24.14,7.64c-.55-.14-1.03-.23-1.4-.28-.01.03-.02.07-.03.11-.13.62.17,1.11.3,1.3.33.46.78.62,1.41.83.19.06,1.01.33,2.12.34.55,0,.83-.05,1.4.06.37.07.68.17.89.26-.54-.6-1.06-1-1.45-1.26-1.23-.84-2.41-1.14-3.24-1.36Z"/>
      </g>
      <g>
        <path class="cls-8" d="M32.07,15.85c.95-.49,2.47-1.14,4.5-1.48-1.75-.29-3.2-.2-4.19-.07-1.39.18-3.69.51-5.69,2.21-.82.7-1.9,1.62-1.99,3.08,0,.15-.05,1.14.54,2.05.83-1.04,2.04-2.36,3.68-3.68.78-.62,1.76-1.4,3.15-2.11Z"/>
        <path class="cls-6" d="M27.46,19.98c-.77.8-1.38,1.54-1.84,2.14.05.05.1.1.15.15.94.82,2.07.8,2.52.75,1.11-.11,1.82-.75,2.79-1.62.3-.27,1.54-1.41,2.65-3.32.54-.94.72-1.48,1.45-2.35.48-.58.96-1,1.32-1.28-1.55.35-2.74.85-3.57,1.26-2.63,1.3-4.29,3.03-5.47,4.26Z"/>
      </g>
      <path class="cls-10" d="M0,38.14c1.66,1.7,11.49,11.46,25.65,11.09,2.27-.06,10.99-.29,18.57-6.24,1.25-.98,2.21-1.92,2.86-2.6.51-.73.7-1.16.56-1.31-.16-.18-.81.09-1.94.81-.97,1.02-2.45,2.35-4.52,3.48-2.64,1.44-5.08,1.95-6.65,2.15,1.77-.63,3.75-1.48,5.83-2.64,4.31-2.41,7.42-5.27,9.53-7.57.2-.46.59-1.44.31-1.65-.38-.29-1.78,1.01-2.01,1.22-1.42,1.32-3.24,2.79-5.52,4.16-3.62,2.18-7.03,3.3-9.57,3.91,3.51-1.54,7.67-3.77,11.94-7,2.18-1.65,4.08-3.32,5.71-4.92.16-.37.59-1.44.29-1.65-.39-.28-1.78,1.06-1.95,1.22-1.57,1.59-3.7,3.45-6.47,5.19-3.62,2.27-7.03,3.5-9.57,4.19,2.6-1.02,5.9-2.67,9.24-5.37,1.54-1.24,2.83-2.51,3.9-3.69.63-.91.87-1.45.71-1.62-.19-.21-.95.12-2.29.98-3.58,3.21-6.96,5.03-9.24,6.06-3.66,1.64-6.18,1.99-6.86,2.07-2.06.26-3.81.16-5.04.02,1.37-.1,3.99-.49,6.65-2.21,1.62-1.05,2.73-2.25,3.43-3.16.44-.49.44-1.04.24-1.2-.18-.14-.58-.05-.94.24-1.27.81-3.29,1.99-5.93,3.03-1.92.75-5.48,1.94-15.94,2.63-2.73.18-6.48.36-10.98.38Z"/>
    </g>
    <g>
      <path class="cls-10" d="M74.59,25.16c-1.85,0-3.55-.3-5.11-.88-1.56-.59-2.9-1.43-4.04-2.52-1.13-1.09-2.02-2.37-2.65-3.84s-.95-3.08-.95-4.84.32-3.37.95-4.84,1.53-2.75,2.69-3.84c1.16-1.09,2.51-1.93,4.07-2.52,1.56-.59,3.27-.88,5.14-.88,2.07,0,3.93.34,5.59,1.03,1.66.69,3.05,1.69,4.19,3l-3.44,3.2c-.87-.91-1.8-1.58-2.8-2.02s-2.1-.65-3.3-.65c-1.11,0-2.14.18-3.07.55-.93.37-1.74.88-2.42,1.55-.68.67-1.2,1.46-1.57,2.37-.37.91-.55,1.92-.55,3.04s.18,2.06.55,2.99c.37.92.89,1.72,1.57,2.39.68.67,1.48,1.19,2.4,1.57.92.38,1.94.57,3.05.57s2.11-.18,3.12-.53c1.01-.36,2-.95,2.95-1.77l3.07,3.9c-1.29.98-2.77,1.72-4.44,2.22-1.67.5-3.34.75-5,.75ZM79.1,21.49v-8.77h4.94v9.48l-4.94-.7Z"/>
      <path class="cls-10" d="M88.67,24.76V6.81h4.97v5.11l-.7-1.5c.53-1.27,1.39-2.23,2.57-2.89,1.18-.66,2.61-.98,4.3-.98v4.84c-.2-.04-.4-.08-.58-.1-.19-.02-.37-.03-.55-.03-1.47,0-2.64.41-3.5,1.23-.87.82-1.3,2.09-1.3,3.8v8.47h-5.21Z"/>
      <path class="cls-10" d="M111.56,25.02c-1.89,0-3.58-.4-5.05-1.2-1.48-.8-2.64-1.9-3.49-3.29-.85-1.39-1.27-2.97-1.27-4.75s.42-3.4,1.27-4.79,2.01-2.48,3.49-3.27c1.48-.79,3.16-1.18,5.05-1.18s3.61.4,5.1,1.18c1.49.79,2.66,1.88,3.5,3.27.85,1.39,1.27,2.99,1.27,4.79s-.42,3.39-1.27,4.77c-.85,1.38-2.01,2.47-3.5,3.27-1.49.8-3.19,1.2-5.1,1.2ZM111.56,20.75c.89,0,1.67-.19,2.35-.58.68-.39,1.22-.96,1.63-1.72.41-.76.62-1.65.62-2.67s-.21-1.94-.62-2.67c-.41-.73-.96-1.3-1.63-1.69-.68-.39-1.45-.58-2.32-.58s-1.65.19-2.34.58c-.69.39-1.24.95-1.65,1.69-.41.73-.62,1.62-.62,2.67s.21,1.91.62,2.67c.41.76.96,1.33,1.65,1.72.69.39,1.46.58,2.3.58Z"/>
      <path class="cls-10" d="M129.01,24.76l-6.47-17.95h4.9l5.37,15.45h-2.37l5.61-15.45h4.44l5.4,15.45h-2.27l5.51-15.45h4.6l-6.51,17.95h-5l-4.8-13.25h1.5l-4.87,13.25h-5.04Z"/>
      <path class="cls-10" d="M154.04,11.21v-4h12.44v4h-12.44ZM163.51,25.02c-2.11,0-3.76-.54-4.94-1.62-1.18-1.08-1.77-2.69-1.77-4.82V2.84h5.24v15.65c0,.76.19,1.35.58,1.77.39.42.92.63,1.58.63.85,0,1.56-.22,2.14-.67l1.37,3.67c-.51.38-1.14.66-1.88.85-.74.19-1.52.28-2.32.28Z"/>
      <path class="cls-10" d="M181.6,6.54c1.42,0,2.7.28,3.82.85,1.12.57,2.01,1.43,2.65,2.6.64,1.17.97,2.66.97,4.49v10.28h-5.2v-9.48c0-1.45-.32-2.51-.95-3.2-.63-.69-1.53-1.03-2.68-1.03-.82,0-1.56.18-2.22.53-.66.36-1.17.88-1.54,1.57-.37.69-.55,1.6-.55,2.74v8.87h-5.2V0h5.2v11.78l-1.17-1.5c.65-1.2,1.57-2.12,2.77-2.77s2.57-.97,4.1-.97Z"/>
      <path class="cls-10" d="M68.86,49.24c-1.48,0-2.91-.2-4.27-.6-1.37-.4-2.47-.91-3.3-1.55l1.46-3.23c.78.56,1.71,1.03,2.81,1.39,1.09.36,2.2.54,3.31.54.85,0,1.53-.09,2.05-.26.52-.18.9-.41,1.15-.7.25-.29.37-.63.37-1.02,0-.49-.19-.89-.58-1.18s-.9-.53-1.55-.71-1.35-.36-2.1-.53c-.76-.17-1.52-.37-2.29-.61-.77-.24-1.47-.56-2.12-.95-.64-.4-1.16-.92-1.53-1.56-.38-.64-.57-1.45-.57-2.42,0-1.06.28-2.02.85-2.9s1.43-1.57,2.58-2.09c1.16-.52,2.61-.78,4.35-.78,1.16,0,2.32.14,3.45.42,1.14.28,2.13.69,2.98,1.22l-1.35,3.23c-.83-.48-1.69-.83-2.57-1.07-.88-.24-1.73-.36-2.54-.36s-1.53.09-2.04.28-.89.44-1.12.75-.36.67-.36,1.06c0,.49.19.89.58,1.19.39.3.9.53,1.54.7.64.17,1.34.34,2.12.5.78.17,1.54.38,2.3.62.76.25,1.46.56,2.09.94.64.38,1.15.89,1.55,1.54.4.64.6,1.44.6,2.4,0,1.04-.29,1.99-.86,2.86-.57.86-1.44,1.56-2.61,2.09-1.16.53-2.62.79-4.37.79Z"/>
      <path class="cls-10" d="M86.09,49.14c-1.5,0-2.84-.32-4.01-.95-1.17-.64-2.1-1.5-2.77-2.61s-1.01-2.36-1.01-3.77.33-2.7,1.01-3.8c.67-1.1,1.59-1.97,2.77-2.59,1.17-.63,2.51-.94,4.01-.94s2.87.31,4.05.94c1.18.63,2.11,1.49,2.78,2.59.67,1.1,1.01,2.37,1.01,3.8s-.34,2.69-1.01,3.78c-.67,1.09-1.6,1.96-2.78,2.59-1.18.63-2.53.95-4.05.95ZM86.09,45.75c.71,0,1.33-.15,1.87-.46.54-.31.97-.76,1.3-1.36.33-.6.49-1.31.49-2.12s-.16-1.54-.49-2.12c-.33-.58-.76-1.03-1.3-1.34s-1.15-.46-1.84-.46-1.31.15-1.85.46c-.55.31-.98.75-1.31,1.34s-.49,1.29-.49,2.12.16,1.52.49,2.12c.33.6.76,1.06,1.31,1.36.55.31,1.16.46,1.83.46Z"/>
      <path class="cls-10" d="M96.68,48.92v-19.64h4.13v19.64h-4.13Z"/>
      <path class="cls-10" d="M110.65,49.14c-1.2,0-2.26-.23-3.18-.69-.92-.46-1.63-1.16-2.14-2.12-.51-.95-.77-2.15-.77-3.6v-8.05h4.13v7.41c0,1.2.25,2.08.75,2.63.5.56,1.21.83,2.13.83.64,0,1.2-.14,1.69-.42.49-.28.89-.71,1.18-1.27.29-.56.44-1.27.44-2.12v-7.07h4.1v14.24h-3.92v-3.94l.71,1.16c-.49.99-1.2,1.73-2.12,2.24-.92.5-1.92.75-3.02.75Z"/>
      <path class="cls-10" d="M121.14,38.18v-3.18h9.87v3.18h-9.87ZM128.65,49.14c-1.68,0-2.98-.43-3.92-1.28-.94-.86-1.4-2.13-1.4-3.83v-12.49h4.16v12.41c0,.6.15,1.07.46,1.4.31.34.73.5,1.26.5.67,0,1.24-.18,1.69-.53l1.09,2.91c-.41.3-.9.53-1.5.68-.59.15-1.2.22-1.84.22Z"/>
      <path class="cls-10" d="M136.41,32.7c-.78,0-1.4-.22-1.88-.66s-.71-.99-.71-1.64.24-1.2.71-1.64c.48-.44,1.1-.66,1.88-.66s1.38.21,1.87.62c.49.41.73.95.73,1.6,0,.69-.24,1.26-.71,1.71-.48.45-1.1.67-1.88.67ZM134.34,48.92v-14.24h4.13v14.24h-4.13Z"/>
      <path class="cls-10" d="M149.06,49.14c-1.5,0-2.84-.32-4.01-.95-1.17-.64-2.1-1.5-2.77-2.61s-1.01-2.36-1.01-3.77.33-2.7,1.01-3.8c.67-1.1,1.59-1.97,2.77-2.59,1.17-.63,2.51-.94,4.01-.94s2.87.31,4.05.94c1.18.63,2.11,1.49,2.78,2.59.67,1.1,1.01,2.37,1.01,3.8s-.34,2.69-1.01,3.78c-.67,1.09-1.6,1.96-2.78,2.59-1.18.63-2.53.95-4.05.95ZM149.06,45.75c.71,0,1.33-.15,1.87-.46.54-.31.97-.76,1.3-1.36.33-.6.49-1.31.49-2.12s-.16-1.54-.49-2.12c-.33-.58-.76-1.03-1.3-1.34s-1.15-.46-1.84-.46-1.31.15-1.85.46c-.55.31-.98.75-1.31,1.34s-.49,1.29-.49,2.12.16,1.52.49,2.12c.33.6.76,1.06,1.31,1.36.55.31,1.16.46,1.83.46Z"/>
      <path class="cls-10" d="M168.31,34.47c1.13,0,2.14.23,3.03.67.89.45,1.59,1.14,2.1,2.06.51.93.77,2.11.77,3.56v8.15h-4.13v-7.52c0-1.15-.25-1.99-.75-2.54-.5-.55-1.21-.82-2.13-.82-.65,0-1.24.14-1.76.42s-.93.7-1.22,1.24c-.29.55-.44,1.27-.44,2.17v7.04h-4.13v-14.24h3.94v3.94l-.74-1.19c.51-.95,1.24-1.68,2.2-2.2.95-.51,2.04-.77,3.26-.77Z"/>
      <path class="cls-10" d="M182.73,49.14c-1.22,0-2.38-.15-3.49-.44-1.11-.29-2-.66-2.67-1.1l1.35-2.94c.67.39,1.45.71,2.34.97.89.26,1.77.38,2.63.38.95,0,1.63-.11,2.02-.34.4-.23.6-.55.6-.95,0-.33-.15-.59-.46-.75s-.71-.3-1.22-.38-1.06-.18-1.68-.26-1.23-.21-1.84-.37c-.61-.16-1.17-.38-1.69-.67-.52-.29-.94-.69-1.24-1.2-.31-.51-.46-1.17-.46-1.99,0-.9.26-1.7.79-2.4.53-.7,1.28-1.24,2.25-1.63.97-.39,2.14-.58,3.52-.58.99,0,1.98.11,2.98.33,1,.22,1.84.53,2.53.91l-1.4,2.94c-.67-.39-1.35-.66-2.05-.82-.7-.16-1.36-.24-2-.24-.95,0-1.64.12-2.07.37-.42.25-.63.57-.63.95,0,.35.16.62.48.81.32.19.73.32,1.24.41.51.09,1.08.18,1.69.26.62.09,1.23.21,1.83.37.6.16,1.16.38,1.68.67.52.29.94.69,1.24,1.2.31.51.46,1.17.46,1.99,0,.86-.26,1.64-.79,2.32-.53.68-1.29,1.21-2.29,1.6s-2.21.58-3.64.58Z"/>
    </g>
  </g>
</svg>